<svg width="24" height="24" viewBox="0 0 24 24" fill="none" xmlns="http://www.w3.org/2000/svg">
<g clip-path="url(#clip0_35_545)">
<path d="M15.121 1.53825C14.4764 1.01325 13.2392 0.75 12.0002 0.75C10.762 0.75 9.52486 1.01287 8.88024 1.53787V9.56662H15.1214L15.121 1.53825ZM21.8942 10.3403L22.0937 10.4467C21.8965 6.59175 20.1464 3.49612 15.7266 2.42625L15.727 8.92237C18.2931 9.17587 20.4666 9.68062 21.8942 10.3403ZM8.27386 8.92237L8.27461 2.42625C3.85411 3.49612 2.10399 6.59175 1.90674 10.4471L2.10624 10.3406C3.53424 9.68062 5.70774 9.17587 8.27386 8.92237Z" fill="black"/>
<path d="M21.75 13.3072V12H23.25C23.25 11.4956 22.863 11.019 22.1876 10.5896C21.309 10.3744 18.7654 9.79275 15.7267 9.48975V10.1336H8.27362V9.48975C5.23425 9.79275 2.68912 10.374 1.812 10.5904C1.13662 11.019 0.75 11.4956 0.75 12H2.25V13.3072C1.686 13.5724 1.125 14.1712 1.125 15.375C1.125 16.8679 1.98825 17.4397 2.649 17.5849C3.10162 20.7307 9.7815 23.25 12 23.25C14.2185 23.25 20.8984 20.7307 21.351 17.5849C22.0118 17.4397 22.875 16.8679 22.875 15.375C22.875 14.1712 22.314 13.5724 21.75 13.3072ZM21 16.875H20.625V17.25C20.625 19.8889 14.2834 22.5 12 22.5C9.71663 22.5 3.375 19.8889 3.375 17.25V16.875H3C2.95425 16.875 1.875 16.8577 1.875 15.375C1.875 13.9372 2.88788 13.8772 3 13.875H3.375V12H20.625V13.875H21C21.0457 13.875 22.125 13.8922 22.125 15.375C22.125 16.8127 21.1121 16.8727 21 16.875Z" fill="black"/>
<path d="M9.375 14.4592C9.375 14.2522 9.33262 14.0569 9.26437 13.8735C9.65062 14.1536 9.9615 14.5305 10.125 15.021C10.125 12.0217 4.875 12.0217 4.875 14.6467C5.1195 14.0347 5.68575 13.6267 6.36112 13.4272C6.12827 13.7209 6.00107 14.0845 6 14.4592C6 14.9068 6.17779 15.336 6.49426 15.6525C6.81073 15.969 7.23995 16.1467 7.6875 16.1467C8.13505 16.1467 8.56428 15.969 8.88074 15.6525C9.19721 15.336 9.375 14.9068 9.375 14.4592ZM13.875 15.021C14.0385 14.5305 14.3494 14.1536 14.7356 13.8735C14.6643 14.0606 14.6268 14.259 14.625 14.4592C14.625 14.9068 14.8028 15.336 15.1193 15.6525C15.4357 15.969 15.8649 16.1467 16.3125 16.1467C16.7601 16.1467 17.1893 15.969 17.5057 15.6525C17.8222 15.336 18 14.9068 18 14.4592C17.9986 14.0845 17.8715 13.7211 17.6389 13.4272C18.3142 13.6267 18.8805 14.0347 19.125 14.6467C19.125 12.0217 13.875 12.0217 13.875 15.021ZM15.0375 18.6405H8.96287C8.62537 18.6405 8.62537 18.9619 8.62537 18.9619C8.62537 20.2481 10.3129 20.8905 12.0004 20.8905C13.6879 20.8905 15.3754 20.2481 15.3754 18.9619C15.375 18.9619 15.375 18.6405 15.0375 18.6405Z" fill="black"/>
</g>
<defs>
<clipPath id="clip0_35_545">
<rect width="24" height="24" fill="white"/>
</clipPath>
</defs>
</svg>
