<svg width="24" height="24" viewBox="0 0 24 24" fill="none" xmlns="http://www.w3.org/2000/svg">
<g clip-path="url(#clip0_35_552)">
<path d="M23.0503 2.16525C22.943 2.03812 22.7915 2.00962 22.676 2.00962C22.5823 2.00962 22.5125 2.02875 22.5125 2.02875L22.3963 2.0775L22.5136 1.3125L21.5176 1.7295L21.6545 0.793122L20.6698 1.17525C20.5993 0.534747 19.8613 0.807372 19.8613 0.807372L11.2115 3.79425C11.2115 3.79425 10.9014 3.10575 10.6126 2.69437C9.94139 1.73362 8.79239 2.02837 8.79239 2.02837L2.19539 4.161C2.19539 4.161 1.28414 4.54012 0.912512 5.54587C0.545762 6.53812 0.912512 7.74637 0.912512 7.74637L4.56426 23.2421L4.57551 23.2339L4.57889 23.25L21.2911 11.4529L23.2336 2.77612C23.2336 2.77575 23.3304 2.49562 23.0503 2.16525ZM2.59439 8.5635L21.2203 1.33725L21.1396 1.88812L2.97089 9.49575L3.58026 14.751L2.59439 8.5635ZM3.84426 13.9721L3.35076 9.71587L22.0715 1.87687L22.0164 2.23725L13.667 5.7495C13.667 5.7495 13.1428 7.854 12.0793 8.40675C10.9194 9.009 5.48151 11.67 5.48151 11.67C5.48151 11.67 4.70751 12.1279 4.26014 12.8647C4.03364 13.2401 3.91064 13.6594 3.84426 13.9721ZM20.6638 11.0381L5.29364 21.8475L4.47801 14.4364C4.49864 14.2609 4.58414 13.6852 4.86201 13.2255C5.17476 12.7099 5.71776 12.3484 5.82314 12.2816C6.30989 12.0435 11.2835 9.60825 12.4048 9.02587C13.454 8.48062 14.0326 6.96562 14.252 6.26212L22.5106 2.78775L20.6638 11.0381Z" fill="black"/>
</g>
<defs>
<clipPath id="clip0_35_552">
<rect width="24" height="24" fill="white"/>
</clipPath>
</defs>
</svg>
