<svg width="24" height="24" viewBox="0 0 24 24" fill="none" xmlns="http://www.w3.org/2000/svg">
<g clip-path="url(#clip0_35_557)">
<path d="M14.5269 18.75H9.66732C9.39694 18.75 9.39694 19.0031 9.39694 19.0031C9.39694 20.0149 10.7477 20.5207 12.0973 20.5207C13.4469 20.5207 14.7969 20.0149 14.7969 19.0031C14.7969 19.0031 14.7973 18.75 14.5269 18.75ZM12.0977 17.865C13.3517 17.8646 13.9787 16.98 13.3517 16.98H10.8437C10.2167 16.98 10.8437 17.865 12.0977 17.865ZM11.9994 7.36536C14.9447 7.36536 17.1996 7.20561 18.9343 6.96598C17.1032 3.46873 19.5624 -0.367516 17.2026 1.05411C15.2661 2.22148 13.3596 2.52711 11.9994 2.52711C10.6393 2.52711 8.73432 2.22223 6.79632 1.05411C4.43682 -0.367516 6.89569 3.46873 5.06494 6.96598C6.79932 7.20561 9.05419 7.36536 11.9994 7.36536Z" fill="black"/>
<path d="M23.25 10.3496C23.25 9.88388 23.0846 10.125 19.8244 8.238L19.8165 8.229C19.6478 8.25525 15.5243 8.90288 11.9992 8.90288C8.47425 8.90288 4.3515 8.25525 4.18275 8.229L4.17488 8.238C0.914625 10.125 0.75 9.8835 0.75 10.3496C0.75 10.4966 0.80025 11.3224 3.0075 11.9899C2.1615 13.9174 2.77725 16.1749 4.491 17.427L4.22438 17.8823L3.84037 17.6636L2.028 20.7503C1.85962 20.6989 1.73662 20.6884 1.70325 20.745L1.60387 20.9138C1.44262 21.1879 3.63112 22.4314 3.79238 22.1565L3.89138 21.9885C3.92475 21.9311 3.85313 21.8314 3.72375 21.7133L5.44425 18.7819C6.2025 20.5388 7.68563 21.795 10.2915 22.9474C10.7269 23.1398 11.3854 23.25 12.0975 23.25C12.8096 23.25 13.4678 23.1398 13.9035 22.947C17.2316 21.4744 18.8014 19.758 19.2476 17.07C20.0475 16.9324 20.8717 16.4239 20.8717 14.9156C20.8717 13.5473 20.3239 13.131 19.857 13.0245C19.8476 12.7765 19.8356 12.5286 19.821 12.2809C23.184 11.5898 23.25 10.5191 23.25 10.3496ZM3.8115 12.2014C4.32487 12.3191 4.92712 12.4283 5.6265 12.5228C5.17537 12.8179 4.875 13.2641 4.875 13.8596C5.10225 13.3005 5.628 12.9278 6.255 12.7451C6.03957 13.0123 5.92124 13.3447 5.91937 13.6879C5.91937 14.5395 6.621 15.2291 7.48612 15.2291C8.352 15.2291 9.05363 14.5391 9.05363 13.6879C9.05363 13.4993 9.01425 13.3208 8.95125 13.1531C9.30975 13.4093 9.59888 13.7539 9.75037 14.2016C9.75037 13.6155 9.52612 13.1561 9.17587 12.8175C9.72338 12.8408 10.3057 12.8569 10.9264 12.8659C11.048 13.3332 11.0762 13.8199 11.0092 14.2981C10.9423 14.7763 10.7816 15.2366 10.5364 15.6525C9.4875 17.439 7.16512 18.0514 5.34938 17.0198C3.62813 16.0414 2.982 13.9391 3.8115 12.2014ZM5.151 18.4088L5.244 18.2505C5.274 18.3403 5.3055 18.4286 5.3385 18.5156L5.151 18.4088ZM20.1217 14.9156C20.1217 15.8629 19.7423 16.3118 18.8921 16.3706L18.5869 16.3916L18.5471 16.6905C18.1991 19.287 16.8109 20.8523 13.5964 22.2746C13.2589 22.4235 12.6986 22.5128 12.0979 22.5128C11.4971 22.5128 10.9369 22.4239 10.5994 22.2746C8.0235 21.1354 6.64275 19.9073 6.00488 18.1538C7.98787 18.7016 10.17 17.8924 11.2481 16.0564C11.8122 15.0969 11.9973 13.9612 11.7671 12.8723C11.8459 12.8726 11.9198 12.8738 11.9996 12.8738C12.9401 12.8738 13.7955 12.8565 14.5853 12.8265C14.0149 13.1108 13.5979 13.6196 13.5979 14.3633C13.7288 13.9774 13.9774 13.6811 14.2864 13.4603C14.2286 13.6071 14.1986 13.7634 14.1979 13.9211C14.1979 14.6543 14.8027 15.2486 15.5479 15.2486C16.2941 15.2486 16.8979 14.6543 16.8979 13.9211C16.8979 13.6136 16.7873 13.3343 16.6091 13.1093C17.1491 13.2664 17.6021 13.587 17.7979 14.0689C17.7979 13.3785 17.3284 12.9203 16.7044 12.7024C17.1888 12.663 17.6723 12.6131 18.1545 12.5528C18.171 12.7564 18.1875 12.9713 18.204 13.2045C18.2344 14.0224 18.1493 14.6171 18.1485 14.6228L18.0446 15.3319L18.6919 15.0034C18.7373 14.9801 19.1426 14.766 19.3597 14.3711C19.4396 14.2253 19.5068 14.0141 19.5637 13.7306H19.5653C19.9342 13.7299 20.1217 14.1293 20.1217 14.9156Z" fill="black"/>
</g>
<defs>
<clipPath id="clip0_35_557">
<rect width="24" height="24" fill="white"/>
</clipPath>
</defs>
</svg>
