<svg width="24" height="24" viewBox="0 0 24 24" fill="none" xmlns="http://www.w3.org/2000/svg">
<g clip-path="url(#clip0_35_563)">
<path d="M12 0.75C5.787 0.75 0.75 5.787 0.75 12C0.75 18.213 5.787 23.25 12 23.25C18.213 23.25 23.25 18.213 23.25 12C23.25 5.787 18.213 0.75 12 0.75ZM12 22.3125C6.3135 22.3125 1.6875 17.6865 1.6875 12C1.6875 6.3135 6.3135 1.6875 12 1.6875C17.6865 1.6875 22.3125 6.3135 22.3125 12C22.3125 17.6865 17.6865 22.3125 12 22.3125Z" fill="black"/>
<path d="M5.57213 10.8203C6.24788 10.1074 7.056 9.82315 7.89937 9.82315C8.74275 9.82315 9.55125 10.1074 10.227 10.8203C10.4066 11.0093 10.7662 10.6617 10.6972 10.4685C10.0001 8.55153 8.94975 7.59265 7.89937 7.59265C6.849 7.59265 5.79825 8.5519 5.10187 10.4685C5.03287 10.6617 5.39213 11.0089 5.57213 10.8203ZM13.7734 10.8203C14.4495 10.1074 15.2572 9.82315 16.101 9.82315C16.9447 9.82315 17.7521 10.1074 18.4286 10.8203C18.6079 11.0093 18.9675 10.6617 18.8989 10.4685C18.2017 8.55153 17.1514 7.59265 16.101 7.59265C15.0506 7.59265 13.9999 8.5519 13.3031 10.4685C13.2337 10.6617 13.5934 11.0089 13.7734 10.8203ZM19.3661 13.254C17.6846 13.0058 15.2006 12.75 11.9996 12.75H11.9992C8.79862 12.75 6.31463 13.0058 4.63388 13.254C3.97913 13.3508 3.75 13.7277 3.75 14.0288C3.75 17.625 5.0595 18.75 10.4291 18.75H13.572C18.9405 18.75 20.25 17.625 20.25 14.0288C20.25 13.7277 20.0201 13.3508 19.3661 13.254ZM12 18C9.609 18 6.19988 18 6.29138 17.2302C6.30788 17.0925 6.34838 16.929 6.39975 16.7517C6.459 16.5544 6.50475 16.5 6.9165 16.5H17.0835C17.4952 16.5 17.5421 16.5544 17.5999 16.7517C17.6527 16.9294 17.6921 17.0925 17.7083 17.2302C17.8001 18 14.391 18 12 18ZM18.3502 14.3134L17.9329 15.4043C17.8597 15.5944 17.6471 15.75 17.4589 15.75H6.54113C6.35363 15.75 6.14062 15.5944 6.06787 15.4043L5.64975 14.3134C5.577 14.1233 5.66962 13.9448 5.85562 13.9167C5.85562 13.9167 8.62762 13.5 12 13.5C15.372 13.5 18.1444 13.9167 18.1444 13.9167C18.33 13.9455 18.4226 14.1233 18.3502 14.3134Z" fill="black"/>
</g>
<defs>
<clipPath id="clip0_35_563">
<rect width="24" height="24" fill="white"/>
</clipPath>
</defs>
</svg>
