<svg width="24" height="24" viewBox="0 0 24 24" fill="none" xmlns="http://www.w3.org/2000/svg">
<path d="M7.475 20C6.24033 20 5.186 19.563 4.312 18.689C3.438 17.815 3.00067 16.7603 3 15.525C3 14.3097 3.42467 13.2677 4.274 12.399C5.12333 11.5303 6.15567 11.0827 7.371 11.056C7.499 11.056 7.62733 11.0657 7.756 11.085C7.884 11.1043 8.012 11.1267 8.14 11.152L4.846 4.53899H9.616L12 9.30799L14.385 4.53799H19.154L15.884 11.083C16 11.057 16.119 11.0377 16.241 11.025C16.3623 11.0117 16.4873 11.005 16.616 11.005C17.84 11.0363 18.8767 11.4863 19.726 12.355C20.5753 13.2237 21 14.272 21 15.5C21 16.7513 20.563 17.8143 19.689 18.689C18.815 19.5637 17.752 20.0007 16.5 20C16.3113 20 16.1187 19.9893 15.922 19.968C15.7253 19.9473 15.5393 19.9073 15.364 19.848C16.152 19.5047 16.705 18.921 17.023 18.097C17.341 17.273 17.5 16.4073 17.5 15.5C17.5 13.9653 16.967 12.665 15.901 11.599C14.835 10.533 13.5347 9.99999 12 9.99999C10.4653 9.99999 9.165 10.533 8.099 11.599C7.033 12.665 6.5 13.9653 6.5 15.5C6.5 16.4153 6.64667 17.296 6.94 18.142C7.23333 18.9887 7.79667 19.5573 8.63 19.848C8.442 19.9073 8.253 19.9473 8.063 19.968C7.873 19.9887 7.677 19.9993 7.475 20ZM12 20C10.75 20 9.68767 19.5627 8.813 18.688C7.93833 17.8133 7.50067 16.7507 7.5 15.5C7.49933 14.2493 7.937 13.187 8.813 12.313C9.689 11.439 10.7513 11.0013 12 11C13.2487 10.9987 14.3113 11.4363 15.188 12.313C16.0647 13.1897 16.502 14.252 16.5 15.5C16.498 16.748 16.0607 17.8107 15.188 18.688C14.3153 19.5653 13.2527 20.0027 12 20ZM10.439 17.789L12 16.6L13.562 17.789L12.977 15.859L14.539 14.746H12.609L12 12.712L11.39 14.746H9.462L11.024 15.86L10.439 17.789Z" fill="black"/>
</svg>
