<svg width="24" height="24" viewBox="0 0 24 24" fill="none" xmlns="http://www.w3.org/2000/svg">
<path d="M16.24 13.663C19.073 14.185 21 15.214 21 16.399C21 18.112 16.97 19.5 12 19.5C7.03 19.5 3 18.112 3 16.399C3 15.214 4.928 14.185 7.76 13.663C8.99 13.983 10.444 14.166 12 14.166C13.556 14.166 15.01 13.981 16.24 13.663ZM15.157 8.64C17.563 9.04 19.22 9.883 19.22 10.858C19.22 12.22 15.988 13.324 12.001 13.324C8.014 13.324 4.781 12.22 4.781 10.858C4.781 9.883 6.439 9.04 8.845 8.64C9.87795 8.89159 10.9379 9.01551 12.001 9.009C13.0641 9.01551 14.124 8.89159 15.157 8.64ZM12.033 4.5C15.019 4.5 17.44 5.335 17.44 6.367C17.44 7.397 15.019 8.233 12.033 8.233C9.047 8.233 6.626 7.397 6.626 6.367C6.626 5.335 9.047 4.5 12.033 4.5Z" fill="black"/>
</svg>
