<svg width="24" height="24" viewBox="0 0 24 24" fill="none" xmlns="http://www.w3.org/2000/svg">
<path d="M13.95 18.175L18.9 13.225C19.0833 13.0417 19.3167 12.95 19.6 12.95C19.8833 12.95 20.1167 13.0417 20.3 13.225C20.4833 13.4083 20.575 13.6417 20.575 13.925C20.575 14.2083 20.4833 14.4417 20.3 14.625L14.65 20.275C14.45 20.475 14.2167 20.575 13.95 20.575C13.6833 20.575 13.45 20.475 13.25 20.275L10.4 17.425C10.2167 17.2417 10.125 17.0083 10.125 16.725C10.125 16.4417 10.2167 16.2083 10.4 16.025C10.5833 15.8417 10.8167 15.75 11.1 15.75C11.3833 15.75 11.6167 15.8417 11.8 16.025L13.95 18.175ZM6.5 13.975H5C4.71667 13.975 4.47934 13.8793 4.288 13.688C4.09667 13.4967 4.00067 13.259 4 12.975C3.99934 12.691 4.09534 12.4537 4.288 12.263C4.48067 12.0723 4.718 11.9763 5 11.975H9V9.97501H5C4.71667 9.97501 4.47934 9.87934 4.288 9.68801C4.09667 9.49668 4.00067 9.25901 4 8.97501V4.97501C4 4.69168 4.096 4.45434 4.288 4.26301C4.48 4.07168 4.71734 3.97568 5 3.97501H6.5C6.5 3.69168 6.596 3.45434 6.788 3.26301C6.98 3.07168 7.21734 2.97568 7.5 2.97501C7.78267 2.97434 8.02034 3.07034 8.213 3.26301C8.40567 3.45568 8.50134 3.69301 8.5 3.97501H10C10.2833 3.97501 10.521 4.07101 10.713 4.26301C10.905 4.45501 11.0007 4.69234 11 4.97501C10.9993 5.25768 10.9033 5.49534 10.712 5.68801C10.5207 5.88068 10.2833 5.97634 10 5.97501H6V7.97501H10C10.2833 7.97501 10.521 8.07101 10.713 8.26301C10.905 8.45501 11.0007 8.69234 11 8.97501V12.975C11 13.2583 10.904 13.496 10.712 13.688C10.52 13.88 10.2827 13.9757 10 13.975H8.5C8.5 14.2583 8.404 14.496 8.212 14.688C8.02 14.88 7.78267 14.9757 7.5 14.975C7.21734 14.9743 6.98 14.8787 6.788 14.688C6.596 14.4973 6.5 14.2597 6.5 13.975Z" fill="black"/>
</svg>
