<svg width="24" height="24" viewBox="0 0 24 24" fill="none" xmlns="http://www.w3.org/2000/svg">
<g clip-path="url(#clip0_35_633)">
<path d="M5.63326 23.1429V18.6823C4.36594 17.949 3.28418 16.9342 2.47158 15.7163C1.65898 14.4983 1.1373 13.1098 0.946856 11.6581C0.756413 10.2064 0.902307 8.73031 1.37326 7.34397C1.84422 5.95763 2.62762 4.69813 3.66294 3.66282C4.69825 2.6275 5.95775 1.8441 7.34409 1.37314C8.73043 0.902185 10.2065 0.756291 11.6582 0.946734C13.1099 1.13718 14.4984 1.65886 15.7164 2.47146C16.9343 3.28406 17.9492 4.36582 18.6824 5.63314M15.1835 23.1429V19.1657H18.367C18.7892 19.1653 19.194 18.9973 19.4926 18.6988C19.7912 18.4002 19.9591 17.9954 19.9595 17.5731V13.5943M9.6104 9.612H0.888118" stroke="black" stroke-width="1.71429" stroke-linecap="round" stroke-linejoin="round"/>
<path d="M15.9792 5.63312V13.5925M9.61231 9.61198C9.61208 9.08911 9.71496 8.57134 9.91505 8.08828C10.1151 7.60521 10.4085 7.16635 10.7784 6.79678C11.1483 6.42722 11.5874 6.13422 12.0706 5.93455C12.5539 5.73487 13.0717 5.63244 13.5946 5.63312H21.4289C21.8835 5.63312 22.3196 5.81373 22.6411 6.13522C22.9626 6.45671 23.1432 6.89275 23.1432 7.34741V11.8783C23.1432 12.3329 22.9626 12.769 22.6411 13.0904C22.3196 13.4119 21.8835 13.5925 21.4289 13.5925H13.5929C13.07 13.593 12.5522 13.4903 12.069 13.2905C11.5859 13.0906 11.1469 12.7974 10.7772 12.4277C10.4075 12.058 10.1143 11.619 9.91439 11.1358C9.71451 10.6527 9.61186 10.1348 9.61231 9.61198Z" stroke="black" stroke-width="1.71429" stroke-linecap="round" stroke-linejoin="round"/>
</g>
<defs>
<clipPath id="clip0_35_633">
<rect width="24" height="24" fill="white"/>
</clipPath>
</defs>
</svg>
