<svg width="24" height="24" viewBox="0 0 24 24" fill="none" xmlns="http://www.w3.org/2000/svg">
<path d="M10.125 3C9.23087 3.00316 8.37426 3.35976 7.74201 3.99201C7.10976 4.62426 6.75316 5.48087 6.75 6.375C6.75 6.975 6.92025 7.53225 7.1955 8.016C5.84475 8.8065 4.78725 9.9285 4.21875 11.25H4.125C4.07547 11.251 4.02625 11.242 3.98029 11.2235C3.93434 11.2051 3.89259 11.1775 3.85756 11.1424C3.82253 11.1074 3.79495 11.0657 3.77646 11.0197C3.75798 10.9737 3.74898 10.9245 3.75 10.875C3.75 10.743 3.8175 10.638 3.91425 10.5705L3.0465 9.35175C2.80099 9.52285 2.6004 9.75066 2.46173 10.0158C2.32307 10.281 2.25044 10.5758 2.25 10.875C2.25 11.7975 2.9385 12.5535 3.8205 12.7035C3.78225 12.966 3.75 13.2277 3.75 13.5C3.75 15.369 4.743 16.989 6.1875 18.1875C6.006 18.9375 6.09675 19.737 6.6795 20.3205C7.10973 20.747 7.69104 20.9864 8.29688 20.9864C8.90271 20.9864 9.48402 20.747 9.91425 20.3205L10.1955 20.0392C10.7812 20.1472 11.37 20.25 12 20.25C12.63 20.25 13.2188 20.1472 13.8045 20.0392L14.0858 20.3205C14.516 20.747 15.0973 20.9864 15.7031 20.9864C16.309 20.9864 16.8903 20.747 17.3205 20.3205C17.8912 19.749 17.9768 18.9728 17.8125 18.234C18.414 17.7456 18.929 17.1594 19.3358 16.5H21V10.5H19.2892C19.0167 10.0581 18.6941 9.64917 18.3278 9.28125L18.75 6.96075V6H18C18 6 16.1985 6.03 14.6715 7.17225C14.2704 7.05712 13.8636 6.963 13.4528 6.89025C13.4833 6.72325 13.499 6.5515 13.5 6.375C13.5 4.52025 11.9797 3 10.125 3ZM10.125 4.5C11.1675 4.5 12 5.3325 12 6.375C12 6.504 11.9768 6.627 11.9528 6.75C10.743 6.756 9.60075 6.99 8.55525 7.383C8.35528 7.08495 8.24898 6.73392 8.25 6.375C8.25 5.3325 9.0825 4.5 10.125 4.5ZM17.0625 7.641C17.0745 7.638 17.0745 7.64325 17.0858 7.641L16.8045 9.351L16.7347 9.75L17.0625 10.0312C17.5627 10.4655 17.9762 10.9905 18.2812 11.5785L18.492 12H19.5V15H18.492L18.2812 15.4222C17.9152 16.1452 17.3378 16.7812 16.5938 17.3197L16.0545 17.7188L16.383 18.3285C16.5615 18.63 16.5293 19.002 16.2653 19.266C16.1941 19.3402 16.1086 19.3993 16.014 19.4396C15.9194 19.48 15.8176 19.5008 15.7147 19.5008C15.6119 19.5008 15.5101 19.48 15.4155 19.4396C15.3209 19.3993 15.2354 19.3402 15.1642 19.266L14.625 18.726L14.3205 18.4455L13.9215 18.5392C13.3125 18.6795 12.6652 18.75 12 18.75C11.3534 18.752 10.7086 18.6813 10.0778 18.5392L9.68025 18.4455L9.375 18.7267L8.83575 19.2653C8.76455 19.3396 8.67904 19.3988 8.58436 19.4392C8.48969 19.4796 8.38782 19.5004 8.28487 19.5004C8.18193 19.5004 8.08006 19.4796 7.98539 19.4392C7.89071 19.3988 7.8052 19.3396 7.734 19.2653C7.61056 19.1457 7.53167 18.9876 7.51039 18.8171C7.48911 18.6466 7.52673 18.4739 7.617 18.3278L7.9455 17.7188L7.40625 17.3205C6.0495 16.335 5.25 14.991 5.25 13.5C5.25 10.6935 8.1825 8.25 12 8.25C12.9225 8.25 13.8015 8.388 14.6017 8.64825L15 8.78925L15.3285 8.508C15.864 8.03025 16.5262 7.773 17.0625 7.641ZM16.5 12C16.0875 12 15.75 12.3375 15.75 12.75C15.75 13.1625 16.0875 13.5 16.5 13.5C16.9125 13.5 17.25 13.1625 17.25 12.75C17.25 12.3375 16.9125 12 16.5 12Z" fill="black"/>
</svg>
