<svg width="24" height="24" viewBox="0 0 24 24" fill="none" xmlns="http://www.w3.org/2000/svg">
<g clip-path="url(#clip0_35_766)">
<mask id="mask0_35_766" style="mask-type:luminance" maskUnits="userSpaceOnUse" x="0" y="0" width="24" height="24">
<path d="M24 0H0V23.9963H24V0Z" fill="white"/>
</mask>
<g mask="url(#mask0_35_766)">
<path d="M0.805479 8.8934L3.74137 10.5251C4.01753 10.6802 4.35288 10.5547 4.49096 10.2483C4.62904 9.94185 4.51726 9.5653 4.2411 9.41024L1.30521 7.77849C1.19014 7.71574 1.11781 7.58652 1.11781 7.44255C1.11781 7.29857 1.19014 7.17305 1.30521 7.11029L11.4444 1.47669C11.7896 1.28472 12.2005 1.28472 12.5458 1.47669L22.6849 7.11029C22.8 7.17305 22.8723 7.30226 22.8723 7.44255C22.8723 7.58283 22.8 7.71204 22.6849 7.77849L18.1841 10.2778C16.7737 8.18459 14.5216 6.82603 11.9934 6.82603C7.7326 6.82603 4.26411 10.6765 4.26411 15.413C4.26411 20.1495 7.7326 24 11.9934 24C16.2542 24 19.7227 20.1495 19.7227 15.413C19.7227 13.94 19.3841 12.5482 18.7923 11.3336L21.0378 10.0858C21.2022 10.5067 21.291 10.9645 21.291 11.4296V14.6562L20.5578 15.4684C20.4526 15.5865 20.3934 15.7416 20.3934 15.9077V19.8911C20.3934 20.2344 20.6466 20.5113 20.9523 20.5113H22.7441C23.0532 20.5113 23.303 20.2307 23.303 19.8911V15.9077C23.303 15.7416 23.2438 15.5828 23.1386 15.4684L22.4088 14.6562V11.4296C22.4088 10.7688 22.2805 10.1227 22.0405 9.52838L23.1847 8.8934C23.6811 8.62021 23.9901 8.06276 23.9901 7.44624C23.9901 6.82972 23.6811 6.27596 23.1847 5.99908L13.0488 0.365481C12.3912 -9.31323e-07 11.6055 -9.31323e-07 10.9479 0.365481L0.805479 5.99908C0.309041 6.27596 0 6.82972 0 7.44624C0 8.06276 0.309041 8.61652 0.805479 8.8934ZM22.1885 16.1698V19.2709H21.5145V16.1698L21.8499 15.797L22.1852 16.1698H22.1885ZM11.9967 8.07014C15.6395 8.07014 18.6049 11.3632 18.6049 15.413C18.6049 19.4629 15.6395 22.7559 11.9967 22.7559C8.35397 22.7559 5.38849 19.4629 5.38849 15.413C5.38849 11.3632 8.35397 8.07014 11.9967 8.07014Z" fill="black"/>
</g>
<path d="M12.5591 15.0217V13.2792H14.6862C14.9952 13.2792 15.2451 12.9986 15.2451 12.6553C15.2451 12.312 14.9952 12.0351 14.6862 12.0351H12.5591V10.6654C12.5591 10.3221 12.3059 10.0415 12.0002 10.0415C11.6944 10.0415 11.4413 10.3221 11.4413 10.6654V12.0351H10.6555C9.60675 12.0351 8.75195 12.9839 8.75195 14.1504C8.75195 15.317 9.60675 16.2658 10.6555 16.2658H11.4413V18.0083H9.31414C9.0051 18.0083 8.75524 18.2889 8.75524 18.6322C8.75524 18.9755 9.0051 19.2524 9.31414 19.2524H11.4413V20.6221C11.4413 20.9654 11.6911 21.246 12.0002 21.246C12.3092 21.246 12.5591 20.9654 12.5591 20.6221V19.2524H13.3448C14.3936 19.2524 15.2484 18.3036 15.2484 17.1371C15.2484 15.9705 14.3969 15.0217 13.3448 15.0217H12.5591ZM10.6555 15.0217C10.2215 15.0217 9.86976 14.6304 9.86976 14.1504C9.86976 13.6705 10.2215 13.2792 10.6555 13.2792H11.4413V15.0217H10.6555ZM12.5591 16.2658H13.3448C13.7755 16.2658 14.1273 16.6571 14.1273 17.1371C14.1273 17.617 13.7755 18.0083 13.3448 18.0083H12.5591V16.2658Z" fill="black"/>
</g>
<defs>
<clipPath id="clip0_35_766">
<rect width="24" height="24" fill="white"/>
</clipPath>
</defs>
</svg>
