<svg width="24" height="24" viewBox="0 0 24 24" fill="none" xmlns="http://www.w3.org/2000/svg">
<g clip-path="url(#clip0_35_776)">
<mask id="mask0_35_776" style="mask-type:luminance" maskUnits="userSpaceOnUse" x="0" y="0" width="24" height="24">
<path d="M24 0H0V24H24V0Z" fill="white"/>
</mask>
<g mask="url(#mask0_35_776)">
<path d="M23.5301 12.8981C23.3063 12.449 22.3787 11.1135 19.93 12.8129L15.6133 15.809C15.396 15.96 15.1787 16.0645 14.9484 16.1303C15.0328 15.9677 15.1009 15.7819 15.1463 15.5806C15.3668 14.5974 14.8771 13.5716 14.0306 13.2464C14.0144 13.2387 13.9982 13.2348 13.9819 13.231C12.7398 12.9639 11.5171 12.4374 10.5344 12.0116C10.1906 11.8606 9.86951 11.7252 9.59383 11.6168C8.48789 11.191 7.48897 11.7174 6.6587 12.2903L3.44789 14.5045L3.14302 13.8658C3.01005 13.5832 2.79275 13.3819 2.53005 13.2968C2.26735 13.2077 1.99167 13.2464 1.75491 13.409L0.545185 14.2258C0.308428 14.3845 0.139779 14.6439 0.0684279 14.9574C-0.00616674 15.271 0.0262657 15.6 0.162482 15.8787L3.72356 23.3806C3.90843 23.7755 4.25546 23.9961 4.60897 23.9961C4.78086 23.9961 4.95275 23.9458 5.10843 23.8374L6.31816 23.0206C6.80789 22.6916 6.97978 21.9484 6.7041 21.3639L6.33437 20.5935L7.06735 20.0903L12.5938 21.8555C12.9052 21.9561 13.2133 22.0064 13.5117 22.0064C14.1084 22.0064 14.6825 21.809 15.2209 21.4142L23.0533 15.6658C23.7668 15.1432 23.9938 13.8194 23.5268 12.8942L23.5301 12.8981ZM5.94518 22.231L4.73546 23.0477C4.61546 23.129 4.45978 23.0748 4.39167 22.9355L0.83059 15.4335C0.798158 15.3639 0.788428 15.2826 0.807887 15.2052C0.827347 15.1277 0.869509 15.0619 0.924644 15.0232L2.13437 14.2064C2.17329 14.1794 2.21221 14.1677 2.25762 14.1677C2.28032 14.1677 2.30302 14.1716 2.32573 14.1794C2.39059 14.2026 2.44248 14.2529 2.47816 14.3187L6.036 21.8168C6.1041 21.96 6.0587 22.1458 5.94194 22.2271L5.94518 22.231ZM13.8263 17.0516C14.6273 17.2064 15.3409 17.0555 16.0025 16.5948L20.3192 13.5987C21.5614 12.7355 22.5182 12.6503 22.8782 13.3664C23.1279 13.8581 23.0144 14.6284 22.6576 14.8916L14.8252 20.64C14.2057 21.0968 13.5214 21.209 12.8014 20.9806L7.11924 19.1652C7.02194 19.1342 6.91491 19.1497 6.82735 19.2116L5.96464 19.8077L3.83059 15.3058L7.04789 13.0877C7.76789 12.5884 8.54627 12.1742 9.36356 12.4916C9.62627 12.5923 9.92789 12.7239 10.2782 12.871C11.2803 13.3045 12.529 13.8426 13.823 14.1213C14.2738 14.311 14.5268 14.8297 14.41 15.3406C14.2576 16.0142 13.7873 16.0994 13.4144 16.049C12.7787 15.8903 12.1755 15.6852 11.5365 15.4684C11.2317 15.3639 10.9203 15.2594 10.596 15.1548C10.3917 15.089 10.1809 15.2361 10.1257 15.4761C10.0706 15.72 10.1938 15.9716 10.3982 16.0374C10.7128 16.1381 11.0241 16.2426 11.3225 16.3471C11.9809 16.5716 12.6036 16.7845 13.2749 16.9471M2.48789 15.6581C2.52356 15.9406 2.35816 16.2 2.1214 16.2426C1.88464 16.2813 1.6641 16.0877 1.63167 15.8052C1.596 15.5226 1.7614 15.2594 1.99816 15.2206C2.23491 15.1781 2.45546 15.3755 2.48789 15.6581ZM4.31059 3.39871L6.50951 4.09548V8.86064C6.50951 9.08129 6.64248 9.27096 6.8241 9.30967C7.7387 9.51096 8.49437 9.68129 9.09762 9.82064C10.6673 10.1806 11.4652 10.3626 12.2663 10.3626C13.0673 10.3626 13.8652 10.1806 15.4317 9.82064C16.0382 9.68129 16.7906 9.50709 17.7052 9.30967C17.8868 9.27096 18.0198 9.08129 18.0198 8.86064V4.09548L19.2619 3.70064V7.52903L18.5517 8.02064C18.4349 8.10193 18.3603 8.2529 18.3603 8.41548V11.6981C18.3603 11.8684 18.4414 12.0271 18.5711 12.1045C18.7009 12.1819 18.8565 12.1664 18.9733 12.0619L19.6446 11.4581L20.316 12.0619C20.3841 12.1239 20.4652 12.1548 20.5463 12.1548C20.6046 12.1548 20.663 12.1394 20.7182 12.1045C20.8479 12.0271 20.929 11.8684 20.929 11.6942V8.41161C20.929 8.24903 20.8576 8.09806 20.7376 8.01677L20.0273 7.52516V3.4529L20.2155 3.39096C20.3841 3.33677 20.5009 3.15871 20.5009 2.94967C20.5009 2.74064 20.3841 2.56258 20.2155 2.50838L12.3603 0.0270934C12.2955 0.00386762 12.2273 0.00386762 12.1657 0.0270934L4.31059 2.51225C4.14194 2.56645 4.02518 2.74838 4.02518 2.95355C4.02518 3.15871 4.14194 3.34451 4.31059 3.39484V3.39871ZM20.1636 10.7806L19.8717 10.5213C19.8036 10.4594 19.7225 10.4323 19.6414 10.4323C19.5603 10.4323 19.4792 10.4632 19.4111 10.5213L19.1192 10.7806V8.67484L19.6382 8.31484L20.1571 8.67484V10.7806H20.1636ZM17.2511 8.48129C16.4728 8.65161 15.8209 8.80258 15.2825 8.92645C13.2695 9.39096 11.2555 9.39096 9.24032 8.92645C8.70518 8.80258 8.05005 8.65161 7.27167 8.48129V4.33935L12.1625 5.88774C12.1949 5.89935 12.2273 5.90322 12.263 5.90322C12.2987 5.90322 12.3279 5.89548 12.3603 5.88774L17.2511 4.33935V8.48129ZM12.263 0.940642L18.6263 2.95355L12.263 4.97032L5.89654 2.95355L12.263 0.940642Z" fill="black"/>
</g>
</g>
<defs>
<clipPath id="clip0_35_776">
<rect width="24" height="24" fill="white"/>
</clipPath>
</defs>
</svg>
