<svg width="24" height="24" viewBox="0 0 24 24" fill="none" xmlns="http://www.w3.org/2000/svg">
<g clip-path="url(#clip0_35_785)">
<path d="M16.75 23.25V1.75C16.75 1.15 16.35 0.75 15.75 0.75H1.75C1.15 0.75 0.75 1.15 0.75 1.75V23.25H23.25V11.25C23.25 10.65 22.85 10.25 22.25 10.25H16.75" stroke="black" stroke-width="1.5" stroke-miterlimit="10" stroke-linecap="round" stroke-linejoin="round"/>
<path d="M6.95 23.25V19.95C6.95 18.95 7.75 18.15 8.75 18.15C9.75 18.15 10.55 18.95 10.55 19.95V23.25M7 3.75H4V7.75H7V3.75ZM13.5 3.75H10.5V7.75H13.5V3.75ZM7 11.25H4V15.25H7V11.25ZM13.5 11.25H10.5V15.25H13.5V11.25Z" stroke="black" stroke-width="1.5" stroke-miterlimit="10" stroke-linecap="round" stroke-linejoin="round"/>
</g>
<defs>
<clipPath id="clip0_35_785">
<rect width="24" height="24" fill="white"/>
</clipPath>
</defs>
</svg>
