<svg width="24" height="24" viewBox="0 0 24 24" fill="none" xmlns="http://www.w3.org/2000/svg">
<path d="M5.45013 14.475C5.05013 14.6917 4.62513 14.7377 4.17513 14.613C3.72513 14.4883 3.38346 14.234 3.15013 13.85C2.86679 13.3667 2.81679 12.8667 3.00013 12.35C3.18346 11.8333 3.54179 11.4833 4.07513 11.3L11.7001 8.775C11.9335 8.69167 12.1628 8.70433 12.3881 8.813C12.6135 8.92167 12.8008 9.11733 12.9501 9.4C13.0835 9.63333 13.1045 9.87933 13.0131 10.138C12.9218 10.3967 12.7591 10.5923 12.5251 10.725L5.45013 14.475ZM8.00013 21C7.45013 21 6.97946 20.8043 6.58813 20.413C6.19679 20.0217 6.00079 19.5507 6.00013 19V15.325L13.8751 11.175C14.1085 11.0417 14.2668 10.846 14.3501 10.588C14.4335 10.33 14.4168 10.084 14.3001 9.85L19.1251 7.45C19.3751 7.31667 19.6295 7.304 19.8881 7.412C20.1468 7.52 20.3591 7.741 20.5251 8.075C20.6418 8.29167 20.6711 8.51667 20.6131 8.75C20.5551 8.98333 20.4341 9.16667 20.2501 9.3L14.0001 14V19C14.0001 19.55 13.8045 20.021 13.4131 20.413C13.0218 20.805 12.5508 21.0007 12.0001 21H8.00013ZM7.50013 10C6.53346 10 5.70846 9.65833 5.02513 8.975C4.34179 8.29167 4.00013 7.46667 4.00013 6.5C4.00013 5.53333 4.34179 4.70833 5.02513 4.025C5.70846 3.34167 6.53346 3 7.50013 3C8.46679 3 9.29179 3.34167 9.97513 4.025C10.6585 4.70833 11.0001 5.53333 11.0001 6.5C11.0001 7.46667 10.6585 8.29167 9.97513 8.975C9.29179 9.65833 8.46679 10 7.50013 10Z" fill="black"/>
</svg>