<svg width="24" height="24" viewBox="0 0 24 24" fill="none" xmlns="http://www.w3.org/2000/svg">
<path d="M2 23V21H22V23H2ZM4 20V14C3.45 13.1 3.025 12.1457 2.725 11.137C2.425 10.1283 2.275 9.09933 2.275 8.05C2.275 7.03333 2.40433 6.03333 2.663 5.05C2.92167 4.06667 3.22567 3.1 3.575 2.15C3.70833 1.8 3.925 1.521 4.225 1.313C4.525 1.105 4.85833 1.00067 5.225 1C5.74167 1 6.18333 1.175 6.55 1.525C6.91667 1.875 7.06667 2.29167 7 2.775L6.725 5.05C6.625 5.85 6.696 6.60833 6.938 7.325C7.18 8.04167 7.54233 8.67067 8.025 9.212C8.50767 9.75333 9.091 10.1867 9.775 10.512C10.459 10.8373 11.2007 11 12 11C13 11 14.0043 11.1043 15.013 11.313C16.0217 11.5217 16.9007 11.8173 17.65 12.2C18.3993 12.5827 18.9787 13.0703 19.388 13.663C19.7973 14.2557 20.0013 14.9847 20 15.85V20H10V19.075C10 18.5083 10.1917 18.0207 10.575 17.612C10.9583 17.2033 11.4333 16.9993 12 17H16V15H12C10.8833 15 9.93733 15.4 9.162 16.2C8.38667 17 7.99933 17.9583 8 19.075V20H4ZM12 10C10.9 10 9.95833 9.60833 9.175 8.825C8.39167 8.04167 8 7.1 8 6C8 4.9 8.39167 3.95833 9.175 3.175C9.95833 2.39167 10.9 2 12 2C13.1 2 14.0417 2.39167 14.825 3.175C15.6083 3.95833 16 4.9 16 6C16 7.1 15.6083 8.04167 14.825 8.825C14.0417 9.60833 13.1 10 12 10Z" fill="black"/>
</svg>
