<svg width="24" height="24" viewBox="0 0 24 24" fill="none" xmlns="http://www.w3.org/2000/svg">
<path d="M9.99979 6.00001C9.44979 6.00001 8.97913 5.80434 8.5878 5.41301C8.19646 5.02167 8.00046 4.55067 7.99979 4.00001C7.99913 3.44934 8.19513 2.97867 8.5878 2.58801C8.98046 2.19734 9.45113 2.00134 9.99979 2.00001C10.5485 1.99867 11.0195 2.19467 11.4128 2.58801C11.8061 2.98134 12.0018 3.45201 11.9998 4.00001C11.9978 4.54801 11.8021 5.01901 11.4128 5.41301C11.0235 5.80701 10.5525 6.00267 9.99979 6.00001ZM16.4998 18C17.1998 18 17.7915 17.7583 18.2748 17.275C18.7581 16.7917 18.9998 16.2 18.9998 15.5C18.9998 14.8 18.7581 14.2083 18.2748 13.725C17.7915 13.2417 17.1998 13 16.4998 13C15.7998 13 15.2081 13.2417 14.7248 13.725C14.2415 14.2083 13.9998 14.8 13.9998 15.5C13.9998 16.2 14.2415 16.7917 14.7248 17.275C15.2081 17.7583 15.7998 18 16.4998 18ZM18.8998 19.3C18.5331 19.5333 18.1498 19.7083 17.7498 19.825C17.3498 19.9417 16.9331 20 16.4998 20C15.2498 20 14.1875 19.5627 13.3128 18.688C12.4381 17.8133 12.0005 16.7507 11.9998 15.5C11.9991 14.2493 12.4368 13.187 13.3128 12.313C14.1888 11.439 15.2511 11.0013 16.4998 11C17.7485 10.9987 18.8111 11.4363 19.6878 12.313C20.5645 13.1897 21.0018 14.252 20.9998 15.5C20.9998 15.9333 20.9415 16.35 20.8248 16.75C20.7081 17.15 20.5331 17.5333 20.2998 17.9L22.2998 19.9C22.4831 20.0833 22.5748 20.3167 22.5748 20.6C22.5748 20.8833 22.4831 21.1167 22.2998 21.3C22.1165 21.4833 21.8831 21.575 21.5998 21.575C21.3165 21.575 21.0831 21.4833 20.8998 21.3L18.8998 19.3ZM10.9998 18.975C11.2498 19.375 11.5455 19.7417 11.8868 20.075C12.2281 20.4083 12.5991 20.7083 12.9998 20.975V21C12.9998 21.2833 12.9038 21.521 12.7118 21.713C12.5198 21.905 12.2825 22.0007 11.9998 22C11.7171 21.9993 11.4798 21.9033 11.2878 21.712C11.0958 21.5207 10.9998 21.2833 10.9998 21V18.975ZM8.99979 16V21C8.99979 21.2833 8.90379 21.521 8.71179 21.713C8.51979 21.905 8.28246 22.0007 7.99979 22C7.71713 21.9993 7.47979 21.9033 7.2878 21.712C7.0958 21.5207 6.99979 21.2833 6.99979 21V9.00001C6.16646 8.93334 5.34146 8.84167 4.5248 8.72501C3.70813 8.60834 2.89146 8.45834 2.0748 8.27501C1.79146 8.20834 1.56246 8.05001 1.3878 7.80001C1.21313 7.55001 1.16713 7.28334 1.2498 7.00001C1.33246 6.71667 1.50346 6.50834 1.7628 6.37501C2.02213 6.24167 2.2928 6.20834 2.5748 6.27501C3.79146 6.55834 5.02079 6.75001 6.26279 6.85001C7.5048 6.95001 8.75046 7.00001 9.99979 7.00001C11.2491 7.00001 12.4951 6.95001 13.7378 6.85001C14.9805 6.75001 16.2095 6.55834 17.4248 6.27501C17.7081 6.20834 17.9791 6.24167 18.2378 6.37501C18.4965 6.50834 18.6671 6.71667 18.7498 7.00001C18.8325 7.28334 18.7868 7.55001 18.6128 7.80001C18.4388 8.05001 18.2095 8.20834 17.9248 8.27501C17.1081 8.45834 16.2915 8.60834 15.4748 8.72501C14.6581 8.84167 13.8331 8.93334 12.9998 9.00001V10.025C12.0998 10.6083 11.3748 11.3793 10.8248 12.338C10.2748 13.2967 9.99979 14.3507 9.99979 15.5V15.75C9.99979 15.8333 10.0081 15.9167 10.0248 16H8.99979Z" fill="black"/>
</svg>
