<svg width="24" height="24" viewBox="0 0 24 24" fill="none" xmlns="http://www.w3.org/2000/svg">
<path d="M6 22V17.7C5.05 16.8333 4.31267 15.821 3.788 14.663C3.26333 13.505 3.00067 12.284 3 11C3 8.5 3.875 6.375 5.625 4.625C7.375 2.875 9.5 2 12 2C14.0833 2 15.9293 2.61267 17.538 3.838C19.1467 5.06333 20.1923 6.659 20.675 8.625L22.275 15H19V20H15V22H13V18H17V13H19.7L18.75 9.125C18.3667 7.60833 17.55 6.375 16.3 5.425C15.05 4.475 13.6167 4 12 4C10.0667 4 8.41667 4.675 7.05 6.025C5.68333 7.375 5 9.01667 5 10.95C5 11.95 5.20433 12.9 5.613 13.8C6.02167 14.7 6.60067 15.5 7.35 16.2L8 16.8V22H6ZM7.725 14.275C8.20833 14.7583 8.8 15 9.5 15C10.2 15 10.7917 14.7583 11.275 14.275L15.275 10.275C15.7583 9.79167 16 9.2 16 8.5C16 7.8 15.7583 7.20833 15.275 6.725C14.7917 6.24167 14.2 6 13.5 6C12.8 6 12.2083 6.24167 11.725 6.725C11.1083 6.50833 10.5 6.45833 9.9 6.575C9.3 6.69167 8.79167 6.95833 8.375 7.375C7.95833 7.79167 7.69167 8.3 7.575 8.9C7.45833 9.5 7.50833 10.1083 7.725 10.725C7.24167 11.2083 7 11.8 7 12.5C7 13.2 7.24167 13.7917 7.725 14.275Z" fill="black"/>
</svg>
