<svg width="24" height="24" viewBox="0 0 24 24" fill="none" xmlns="http://www.w3.org/2000/svg">
<path d="M23.2392 15.9877C23.0022 13.6125 22.4723 11.6216 22.355 6.48075C22.2713 2.841 17.8527 2.56087 16.7041 3.79425C15.4025 2.19862 11.9183 2.1615 10.6182 4.14675C9.60833 3.59175 6.90533 3.47212 5.78858 4.84912C5.78858 4.84912 2.47546 4.32 0.975083 9.8445C0.436208 11.8279 1.02008 14.4577 1.12883 15.003C1.88746 18.8081 5.06708 18.0742 5.70721 17.703C6.79171 20.493 9.59783 19.9909 10.7266 19.1704C10.7918 20.8256 12.1407 21.621 13.001 21.3075C15.5217 20.3884 17.6247 20.2639 19.2875 20.3299C20.0851 20.361 20.7113 19.9781 21.0653 19.2877C22.3122 18.6379 23.3708 17.3081 23.2392 15.9877ZM17.4173 16.362C17.7953 14.1877 16.9752 10.965 17.2673 8.511C16.0823 10.3582 16.9598 15.5876 16.4626 17.7079C16.0557 19.4404 12.8453 18.8985 11.8523 16.8172C11.5081 13.6346 12.0113 11.7896 11.144 8.511C11.2257 12.4747 10.6133 13.2131 11.0221 17.0659C10.0756 18.0379 6.80746 17.3539 6.64246 15.708C6.42233 13.5112 6.87796 11.7859 6.23033 9.65587C6.23033 11.6692 5.83208 12.7432 6.02746 15.7234C6.02858 15.7417 5.44396 16.1884 4.57658 16.1884C1.02496 16.1884 1.33433 10.9282 1.91896 9.09112C2.76496 6.42937 4.99658 4.87875 6.14933 5.487C6.72196 4.15162 9.98896 4.03387 10.5518 5.28487C11.0378 2.98125 15.6912 3.168 16.9287 5.22262C17.759 3.55762 21.563 4.05562 21.6027 6.49312C21.6908 11.7652 22.4592 14.2335 22.4288 16.5416C21.1272 18.147 18.827 18.0049 17.4173 16.362Z" fill="#2A2E35"/>
</svg>
