<svg width="24" height="24" viewBox="0 0 24 24" fill="none" xmlns="http://www.w3.org/2000/svg">
<g clip-path="url(#clip0_35_471)">
<path d="M12 0.75C5.787 0.75 0.75 5.787 0.75 12C0.75 18.213 5.787 23.25 12 23.25C18.213 23.25 23.25 18.213 23.25 12C23.25 5.787 18.213 0.75 12 0.75ZM12 22.3125C6.3135 22.3125 1.6875 17.6865 1.6875 12C1.6875 6.3135 6.3135 1.6875 12 1.6875C17.6865 1.6875 22.3125 6.3135 22.3125 12C22.3125 17.6865 17.6865 22.3125 12 22.3125Z" fill="black"/>
<path d="M20.4814 9.01987C19.7896 8.43585 18.9775 8.01157 18.103 7.77725C17.2285 7.54294 16.3131 7.50435 15.4219 7.66425C15.1583 7.71487 15.3488 8.5155 15.567 8.47275C17.13 8.19225 18.7384 8.62275 19.9512 9.64762C20.118 9.79237 20.6835 9.19537 20.4814 9.01987ZM8.43305 8.41612C8.6498 8.4585 8.8418 7.65825 8.57817 7.60762C7.68704 7.44773 6.77161 7.48631 5.89709 7.72063C5.02257 7.95494 4.21048 8.37922 3.51867 8.96325C3.31655 9.13912 3.88205 9.73687 4.04817 9.591C4.64786 9.08506 5.35168 8.71748 6.10955 8.51442C6.86742 8.31136 7.66073 8.2778 8.43305 8.41612ZM19.4303 11.6902C17.8459 12.9352 15.2832 12.8205 13.8454 11.691C13.5949 11.8609 13.3898 11.9284 13.4674 12.0784C15.0473 15.0607 18.228 15.06 19.8087 12.0784C19.8867 11.9284 19.6815 11.8609 19.4303 11.6902ZM10.533 12.0784C10.6107 11.9284 10.4055 11.8609 10.1543 11.6902C8.56992 12.9352 6.00717 12.8205 4.57017 11.691C4.31892 11.8609 4.11305 11.9284 4.19067 12.0784C5.77167 15.0607 8.95242 15.06 10.533 12.0784ZM14.2553 17.25H9.7448C9.25205 17.25 9.25205 18.75 9.7448 18.75H14.2549C14.7488 18.75 14.7488 17.25 14.2553 17.25Z" fill="black"/>
</g>
<defs>
<clipPath id="clip0_35_471">
<rect width="24" height="24" fill="white"/>
</clipPath>
</defs>
</svg>
