<svg width="24" height="24" viewBox="0 0 24 24" fill="none" xmlns="http://www.w3.org/2000/svg">
<g clip-path="url(#clip0_35_477)">
<path d="M12 0.75C5.787 0.75 0.75 5.787 0.75 12C0.75 18.213 5.787 23.25 12 23.25C18.213 23.25 23.25 18.213 23.25 12C23.25 5.787 18.213 0.75 12 0.75ZM12 22.3125C6.3135 22.3125 1.6875 17.6865 1.6875 12C1.6875 6.3135 6.3135 1.6875 12 1.6875C17.6865 1.6875 22.3125 6.3135 22.3125 12C22.3125 17.6865 17.6865 22.3125 12 22.3125Z" fill="black"/>
<path d="M11.9999 12.375C9.61714 12.375 7.75752 13.7265 6.83614 15.2437C6.58939 15.6495 6.91752 16.089 7.28089 15.8355C10.3225 13.7145 13.696 13.7269 16.7189 15.8355C17.083 16.089 17.4111 15.6495 17.1644 15.2437C16.2426 13.7265 14.3826 12.375 11.9999 12.375ZM19.5936 8.76711C18.9366 7.97961 17.7261 7.20636 16.2179 6.95661C17.2338 6.39411 18.304 6.22198 19.3139 6.07123C19.4883 6.04498 19.5876 5.78623 19.3761 5.66098C17.2398 4.38673 13.765 5.40598 13.1478 8.10786C13.1088 8.27473 13.2655 8.38048 13.4481 8.36211C15.7611 8.12398 17.6009 8.47573 19.3904 9.12523C19.5561 9.18598 19.7418 8.94523 19.5936 8.76711ZM10.5528 8.36211C10.735 8.38048 10.891 8.27511 10.8531 8.10786C10.2359 5.40598 6.76114 4.38636 4.62402 5.66098C4.41289 5.78623 4.51264 6.04461 4.68702 6.07123C5.69689 6.22198 6.76714 6.39411 7.78302 6.95661C6.27514 7.20636 5.06427 7.97998 4.40727 8.76711C4.25877 8.94523 4.44477 9.18598 4.61014 9.12523C6.39964 8.47573 8.23977 8.12398 10.5528 8.36211Z" fill="black"/>
</g>
<defs>
<clipPath id="clip0_35_477">
<rect width="24" height="24" fill="white"/>
</clipPath>
</defs>
</svg>
