<svg width="24" height="24" viewBox="0 0 24 24" fill="none" xmlns="http://www.w3.org/2000/svg">
<g clip-path="url(#clip0_35_483)">
<path d="M12 0.75C5.7855 0.75 0.75 5.7855 0.75 12C0.75 18.2145 5.7855 23.25 12 23.25C18.2145 23.25 23.25 18.2145 23.25 12C23.25 5.7855 18.2145 0.75 12 0.75ZM12 22.3125C6.3135 22.3125 1.6875 17.6865 1.6875 12C1.6875 6.3135 6.3135 1.6875 12 1.6875C17.6865 1.6875 22.3125 6.3135 22.3125 12C22.3125 12.5089 22.2739 13.0087 22.2023 13.4985C21.888 11.376 20.0685 9.46125 20.0685 9.46125C20.0685 9.46125 17.883 11.7536 17.883 14.1019C17.883 16.4843 20.2804 17.1004 21.5235 15.9532C19.9691 19.683 16.2866 22.3125 12 22.3125Z" fill="black"/>
<path d="M14.4368 15C15.4723 15 16.3118 14.1605 16.3118 13.125C16.3118 12.0895 15.4723 11.25 14.4368 11.25C13.4012 11.25 12.5618 12.0895 12.5618 13.125C12.5618 14.1605 13.4012 15 14.4368 15Z" fill="black"/>
<path d="M5.81177 15C6.8473 15 7.68677 14.1605 7.68677 13.125C7.68677 12.0895 6.8473 11.25 5.81177 11.25C4.77623 11.25 3.93677 12.0895 3.93677 13.125C3.93677 14.1605 4.77623 15 5.81177 15Z" fill="black"/>
<path d="M8.24689 8.09247C8.44976 7.9166 7.88276 7.3196 7.71664 7.46472C7.11708 7.97089 6.41328 8.33861 5.65536 8.54168C4.89745 8.74476 4.10407 8.77819 3.33176 8.6396C3.11501 8.59722 2.92376 9.39747 3.18739 9.4481C4.07852 9.60799 4.99395 9.56941 5.86847 9.33509C6.74299 9.10078 7.55508 8.6765 8.24689 8.09247ZM16.9173 8.5826C15.3543 8.8631 13.7466 8.4326 12.5331 7.40772C12.367 7.26185 11.8 7.8596 12.0036 8.03547C12.6954 8.6195 13.5075 9.04378 14.3821 9.27809C15.2566 9.51241 16.172 9.55099 17.0631 9.3911C17.3268 9.34047 17.1348 8.53985 16.9173 8.5826ZM14.2776 17.7487C12.1154 17.1678 9.75926 17.5882 7.92889 18.879C7.47701 19.2048 8.32376 20.3891 8.77339 20.061C9.98201 19.2105 11.9054 18.6232 13.8959 19.149C14.4295 19.2903 14.8469 17.9085 14.2776 17.7487Z" fill="black"/>
</g>
<defs>
<clipPath id="clip0_35_483">
<rect width="24" height="24" fill="white"/>
</clipPath>
</defs>
</svg>
