<svg width="24" height="24" viewBox="0 0 24 24" fill="none" xmlns="http://www.w3.org/2000/svg">
<path d="M19.373 15.2935C19.439 15.389 19.506 15.4685 19.554 15.5585C19.653 15.7435 19.659 15.924 19.5055 16.0895C19.4405 16.16 19.382 16.237 19.319 16.3095C19.0915 16.5685 19.0315 16.836 19.214 17.158C19.3055 17.32 19.3575 17.517 19.379 17.7035C19.457 18.3905 19.1985 18.8125 18.522 18.96C18.017 19.07 17.487 19.075 16.967 19.1075C16.608 19.13 16.246 19.1085 15.886 19.1275C15.6445 19.141 15.4885 19.3 15.446 19.5305C15.371 19.9355 15.3015 20.3435 15.266 20.753C15.224 21.238 15.207 21.7265 15.206 22.213C15.2055 22.457 15.1085 22.5055 14.8895 22.4995C13.3495 22.4555 11.8825 22.0985 10.483 21.469C9.1045 20.8485 7.92 19.953 6.903 18.838C6.8255 18.753 6.76901 18.5945 6.78801 18.485C6.93151 17.654 6.77351 16.8755 6.362 16.159C5.88451 15.328 5.416 14.484 4.851 13.7135C4.0745 12.6535 3.605 11.486 3.303 10.2235C2.7765 8.0225 3.7485 4.7735 5.50951 3.262C6.53201 2.3845 7.7115 1.862 9.0245 1.653C10.9105 1.3525 12.7785 1.501 14.6065 2.0425C15.4015 2.2775 16.1395 2.6555 16.823 3.1315C17.532 3.625 18.0425 4.2465 18.2355 5.1185C18.414 5.9235 18.6445 6.7165 18.8555 7.5135C18.976 7.9685 19.1155 8.4185 19.2235 8.876C19.2885 9.1525 19.2655 9.4295 19.12 9.6915C19.09 9.7455 19.125 9.858 19.1635 9.923C19.6635 10.7594 20.1685 11.5927 20.6785 12.423C20.8355 12.6785 20.8795 12.938 20.8035 13.227C20.735 13.4865 20.6255 13.567 20.354 13.5895C20.1418 13.608 19.9318 13.6458 19.7265 13.7025C19.5565 13.7485 19.4915 13.8665 19.5835 14.0435C19.6305 14.1345 19.6645 14.233 19.6975 14.3305C19.863 14.8205 19.8025 15.005 19.373 15.2935Z" stroke="#013237" stroke-width="0.5" stroke-linecap="round" stroke-linejoin="round"/>
<path d="M16.3274 5.7865C16.8424 6.908 17.7799 9.666 15.4634 9.5465C14.8994 9.5175 13.0274 9.574 12.3384 9.9235C10.8179 10.6935 9.53344 11.692 7.58544 11.8355C5.46194 11.9915 5.03894 9.569 5.03894 8.673C5.03894 5.382 7.41194 3.453 9.79194 3.378C14.1769 3.2405 15.5594 4.113 16.3274 5.7865Z" stroke="#013237" stroke-width="0.5" stroke-linecap="round" stroke-linejoin="round"/>
<path d="M12.387 3.44151C12.5555 3.82601 12.655 4.33551 12.685 4.92751C12.7049 5.46471 12.6775 6.00263 12.603 6.53501C12.5539 6.88196 12.489 7.22649 12.4085 7.56751C12.3265 7.91751 12.227 8.25451 12.119 8.57401C11.9492 9.08425 11.7323 9.57755 11.471 10.0475C11.363 10.2375 11.251 10.4145 11.1385 10.5745C11.1385 10.579 11.1335 10.579 11.1335 10.579M9.30195 11.4645C8.83995 11.1705 8.56345 10.3885 8.51545 9.34751C8.48995 8.85901 8.51545 8.31501 8.59795 7.73601C8.64545 7.40301 8.70995 7.05751 8.79195 6.70751C8.87445 6.35751 8.97345 6.02051 9.08195 5.70101C9.25168 5.19077 9.46862 4.69747 9.72995 4.22751V4.22351C9.91995 3.89051 10.1186 3.60534 10.326 3.36801" stroke="#013237" stroke-width="0.5" stroke-linecap="round" stroke-linejoin="round"/>
<path d="M7.10749 4.31399C6.93449 4.81499 7.14199 5.58899 7.64749 6.43549C7.92154 6.89841 8.23968 7.33377 8.59748 7.73549C8.81798 7.98649 9.05998 8.24149 9.32348 8.48749C9.58698 8.73349 9.85048 8.96249 10.1185 9.17049C10.5405 9.50501 10.9934 9.79866 11.471 10.0475C11.5835 10.1075 11.696 10.16 11.8035 10.2075M8.15298 3.73099C8.59798 3.74799 9.14248 3.92099 9.72998 4.22349V4.22749C10.162 4.44749 10.624 4.74149 11.082 5.10049C11.632 5.53068 12.1412 6.01072 12.603 6.53449C12.9598 6.93995 13.2795 7.37671 13.558 7.83949C13.9425 8.49599 14.154 9.10099 14.154 9.57649" stroke="#013237" stroke-width="0.5" stroke-linecap="round" stroke-linejoin="round"/>
<path d="M11.1324 8.91864C13.5451 8.1968 15.2624 6.81404 14.9681 5.83015C14.6737 4.84627 12.4792 4.63384 10.0664 5.35568C7.65368 6.07752 5.93638 7.46029 6.23073 8.44417C6.52509 9.42805 8.71963 9.64048 11.1324 8.91864Z" stroke="#013237" stroke-width="0.5" stroke-linecap="round" stroke-linejoin="round"/>
<path d="M10.5995 7.51199C10.8066 7.51199 10.9745 7.3441 10.9745 7.13699C10.9745 6.92989 10.8066 6.76199 10.5995 6.76199C10.3924 6.76199 10.2245 6.92989 10.2245 7.13699C10.2245 7.3441 10.3924 7.51199 10.5995 7.51199Z" fill="#013237"/>
</svg>
