<svg width="24" height="24" viewBox="0 0 24 24" fill="none" xmlns="http://www.w3.org/2000/svg">
<g clip-path="url(#clip0_35_249)">
<path d="M3 16.5V13.5H0V0H18V3H21V9H19.5V4.5H4.5V15H13.5V16.5H3ZM3 12V3H16.5V1.5H1.5V12H3ZM6 13.5V10.5H7.5V13.5H6ZM9 13.5V7.5H10.5V13.5H9ZM12 13.5V9H13.5V13.5H12ZM19.5 10.5C20.1172 10.5 20.6992 10.6172 21.2461 10.8516C21.793 11.0859 22.2695 11.4062 22.6758 11.8125C23.082 12.2188 23.4062 12.6992 23.6484 13.2539C23.8906 13.8086 24.0078 14.3906 24 15C24 15.625 23.8828 16.207 23.6484 16.7461C23.4141 17.2852 23.0938 17.7617 22.6875 18.1758C22.2812 18.5898 21.8008 18.9141 21.2461 19.1484C20.6914 19.3828 20.1094 19.5 19.5 19.5C19.0312 19.5 18.5742 19.4297 18.1289 19.2891C17.6836 19.1484 17.2734 18.9414 16.8984 18.668L11.7773 23.7773C11.6289 23.9258 11.4531 24 11.25 24C11.0469 24 10.8711 23.9258 10.7227 23.7773C10.5742 23.6289 10.5 23.4531 10.5 23.25C10.5 23.0469 10.5742 22.8711 10.7227 22.7227L15.832 17.6016C15.5586 17.2266 15.3516 16.8164 15.2109 16.3711C15.0703 15.9258 15 15.4688 15 15C15 14.3828 15.1172 13.8008 15.3516 13.2539C15.5859 12.707 15.9062 12.2305 16.3125 11.8242C16.7188 11.418 17.1953 11.0938 17.7422 10.8516C18.2891 10.6094 18.875 10.4922 19.5 10.5ZM19.5 18C19.9141 18 20.3008 17.9219 20.6602 17.7656C21.0195 17.6094 21.3398 17.3945 21.6211 17.1211C21.9023 16.8477 22.1172 16.5312 22.2656 16.1719C22.4141 15.8125 22.4922 15.4219 22.5 15C22.5 14.5859 22.4219 14.1992 22.2656 13.8398C22.1094 13.4805 21.8945 13.1602 21.6211 12.8789C21.3477 12.5977 21.0312 12.3828 20.6719 12.2344C20.3125 12.0859 19.9219 12.0078 19.5 12C19.0859 12 18.6992 12.0781 18.3398 12.2344C17.9805 12.3906 17.6602 12.6055 17.3789 12.8789C17.0977 13.1523 16.8828 13.4688 16.7344 13.8281C16.5859 14.1875 16.5078 14.5781 16.5 15C16.5 15.4141 16.5781 15.8008 16.7344 16.1602C16.8906 16.5195 17.1055 16.8398 17.3789 17.1211C17.6523 17.4023 17.9688 17.6172 18.3281 17.7656C18.6875 17.9141 19.0781 17.9922 19.5 18Z" fill="#013237"/>
</g>
<defs>
<clipPath id="clip0_35_249">
<rect width="24" height="24" fill="white"/>
</clipPath>
</defs>
</svg>
