<svg width="24" height="24" viewBox="0 0 24 24" fill="none" xmlns="http://www.w3.org/2000/svg">
<g clip-path="url(#clip0_35_589)">
<path d="M22.8527 5.7075H21.7127V7.995H19.4252V9.1425H17.1377V10.2825H19.4252V13.71H18.2852V14.8575H19.4252V17.1375H20.5652V9.1425H21.7127V19.425H20.5652V24H24.0002V19.425H22.8527V5.7075ZM19.4252 4.5675H21.7127V5.7075H19.4252V4.5675Z" fill="black"/>
<path d="M18.285 17.1375H19.425V18.285H18.285V17.1375ZM14.85 6.855H19.425V7.995H14.85V6.855ZM17.1375 3.4275H19.425V4.5675H17.1375V3.4275ZM15.9975 18.285H18.285V19.425H15.9975V18.285ZM15.9975 14.8575H18.285V15.9975H15.9975V14.8575ZM14.85 10.2825H17.1375V11.4225H14.85V10.2825ZM14.85 2.28H17.1375V3.4275H14.85V2.28ZM6.855 19.425H15.9975V20.565H6.855V19.425ZM6.855 15.9975H15.9975V17.1375H6.855V15.9975ZM12.57 11.4225H14.85V12.57H12.57V11.4225ZM10.2825 5.7075H14.85V6.855H10.2825V5.7075ZM12.57 1.14H14.85V2.28H12.57V1.14ZM10.2825 0H12.57V1.14H10.2825V0ZM10.2825 12.57H12.57V13.71H10.2825V12.57ZM7.995 1.14H10.2825V2.28H7.995V1.14ZM7.995 11.4225H10.2825V12.57H7.995V11.4225ZM5.7075 2.28H7.995V3.4275H5.7075V2.28ZM4.5675 18.285H6.855V19.425H4.5675V18.285ZM4.5675 14.8575H6.855V15.9975H4.5675V14.8575ZM5.7075 10.2825H7.995V11.4225H5.7075V10.2825ZM3.4275 3.4275H5.7075V4.5675H3.4275V3.4275ZM3.4275 17.1375H4.5675V18.285H3.4275V17.1375ZM4.5675 14.8575V13.71H3.4275V10.2825H5.7075V9.1425H3.4275V7.995H1.14V9.1425H2.28V17.1375H3.4275V14.8575H4.5675ZM1.14 4.5675H3.4275V5.7075H1.14V4.5675ZM0 5.7075H1.14V7.995H0V5.7075Z" fill="black"/>
</g>
<defs>
<clipPath id="clip0_35_589">
<rect width="24" height="24" fill="white"/>
</clipPath>
</defs>
</svg>
