<svg width="24" height="24" viewBox="0 0 24 24" fill="none" xmlns="http://www.w3.org/2000/svg">
<path d="M3.256 7.70241C3.18218 7.89826 3.18805 8.11523 3.27235 8.30679C3.35664 8.49836 3.51266 8.64926 3.70692 8.72714C3.90119 8.80501 4.11824 8.80366 4.31151 8.72336C4.50479 8.64306 4.65891 8.49022 4.7408 8.29761L3.256 7.70241ZM19.256 8.29761C19.2935 8.39723 19.3506 8.48835 19.4238 8.56563C19.497 8.64292 19.5849 8.70481 19.6824 8.74769C19.7798 8.79056 19.8848 8.81356 19.9913 8.81534C20.0977 8.81711 20.2034 8.79762 20.3023 8.75801C20.4011 8.7184 20.491 8.65946 20.5667 8.58466C20.6425 8.50985 20.7025 8.42068 20.7434 8.32237C20.7842 8.22406 20.805 8.11859 20.8046 8.01213C20.8041 7.90568 20.7825 7.80038 20.7408 7.70241L19.256 8.29761ZM22.3984 9.38561V14.736H23.9984V9.38401L22.3984 9.38561ZM17.936 19.2H17.0688V20.8H17.936V19.2ZM6.9312 19.2H6.064V20.8H6.9312V19.2ZM1.6 14.736V9.38401H0V14.736H1.6ZM1.5808 9.40801C8.39063 7.46199 15.6094 7.46199 22.4192 9.40801L22.8576 7.87041C15.7612 5.84274 8.2388 5.84274 1.1424 7.87041L1.5808 9.40801ZM6.064 19.2C4.88007 19.2 3.74464 18.7297 2.90748 17.8925C2.07031 17.0554 1.6 15.9199 1.6 14.736H0C0 16.3443 0.638884 17.8867 1.7761 19.0239C2.91333 20.1611 4.45573 20.8 6.064 20.8V19.2ZM6.6272 19.3808C6.65741 19.3265 6.70145 19.2812 6.75484 19.2495C6.80824 19.2177 6.86908 19.2006 6.9312 19.2V20.8C7.15625 20.8004 7.37723 20.74 7.57074 20.625C7.76424 20.5101 7.92467 20.345 8.032 20.1472L6.6272 19.3808ZM8.032 20.1472C9.7456 17.0064 14.2544 17.0064 15.9696 20.1472L17.3728 19.3808C15.0528 15.128 8.9456 15.128 6.6272 19.3808L8.032 20.1472ZM17.0688 19.2C17.1968 19.2 17.312 19.2688 17.3728 19.3808L15.9696 20.1472C16.0769 20.345 16.2358 20.5101 16.4293 20.625C16.6228 20.74 16.8437 20.8004 17.0688 20.8V19.2ZM22.4 14.736C22.4 15.9199 21.9297 17.0554 21.0925 17.8925C20.2554 18.7297 19.1199 19.2 17.936 19.2V20.8C19.5443 20.8 21.0867 20.1611 22.2239 19.0239C23.3611 17.8867 24 16.3443 24 14.736H22.4ZM24 9.38401C23.9999 9.04185 23.8884 8.70903 23.6822 8.43592C23.4761 8.16282 23.1866 7.9643 22.8576 7.87041L22.4192 9.40801C22.4142 9.40594 22.4099 9.40266 22.4065 9.39847C22.4032 9.39427 22.4009 9.3893 22.4 9.38401H24ZM1.6 9.38401C1.59907 9.3893 1.59683 9.39427 1.59347 9.39847C1.59011 9.40266 1.58576 9.40594 1.5808 9.40801L1.1424 7.87041C0.813634 7.96422 0.524338 8.1641 0.318236 8.43688C0.112135 8.70967 0.000428316 9.04212 0 9.38401H1.6ZM4.0512 5.71521L3.256 7.70241L4.7408 8.29761L5.5376 6.30881L4.0512 5.71521ZM18.4624 6.30721L19.2576 8.29761L20.7408 7.70241L19.9472 5.71521L18.4624 6.30721ZM7.7664 4.80001H16.2336V3.20001H7.7664V4.80001ZM19.9472 5.71521C19.6504 4.97286 19.138 4.33647 18.4761 3.88815C17.8142 3.43982 17.0331 3.20013 16.2336 3.20001V4.80001C16.7134 4.79993 17.1821 4.94364 17.5794 5.21258C17.9767 5.48152 18.2843 5.86336 18.4624 6.30881L19.9472 5.71521ZM5.5376 6.30721C5.716 5.86206 6.02367 5.48056 6.42093 5.21192C6.8182 4.94327 7.28683 4.7998 7.7664 4.80001V3.20001C6.96693 3.20013 6.18584 3.43982 5.5239 3.88815C4.86197 4.33647 4.34796 4.97286 4.0512 5.71521L5.5376 6.30721Z" fill="black"/>
</svg>
