<svg width="24" height="24" viewBox="0 0 24 24" fill="none" xmlns="http://www.w3.org/2000/svg">
<path d="M15.7301 2.41801L14.1405 8.92351L12.8201 2.32801C12.3555 -0.234365 8.54846 0.56401 9.07871 3.00151L10.0305 7.84314C9.06334 7.50489 7.42534 8.32651 7.56109 9.83889C6.98921 8.99214 4.29597 9.23701 4.51234 11.7173C4.51234 11.7173 4.73284 13.4074 4.76209 13.974C4.81422 14.9906 4.74034 16.86 4.90234 18.0439C5.38159 21.5479 8.57884 23.1821 11.5346 23.2478C11.5963 23.2493 11.6586 23.25 11.7213 23.25C14.7633 23.25 18.0708 21.6086 18.7515 17.8871C19.2438 15.1901 18.3333 13.9755 17.0741 13.0511L19.4392 3.24114C20.0167 0.955135 16.3095 0.0371354 15.7301 2.41801ZM9.61684 2.67114C9.35134 1.32526 11.5308 1.07514 11.7918 2.44164L13.5262 11.5249C13.2003 11.5661 12.5681 11.8478 11.7941 11.8894L11.5166 9.44364C11.4592 8.92614 11.0358 8.31526 10.6695 8.02539L9.61684 2.67114ZM9.76421 8.53801C10.3425 8.81476 10.5603 9.00451 10.8191 11.8969C10.0612 11.8969 9.44321 12.5955 9.44321 13.4254C8.96734 13.4254 8.68647 12.9371 8.53084 12.4245C8.30322 11.6771 8.13109 10.5563 8.05422 9.93714C7.90009 8.68539 9.16534 8.25114 9.76421 8.53801ZM7.41859 11.1739C7.51759 11.5463 8.02309 13.4498 7.86446 14.2969C7.59709 15.7196 5.42171 15.4129 5.25596 13.9474L4.97509 11.5455C4.81534 10.1063 6.94609 9.39301 7.41859 11.1739ZM17.0587 19.2405C15.2036 22.3358 11.3343 22.8889 8.73372 21.7823C6.49272 20.8286 4.88134 19.2874 5.24397 15.1249C5.67709 15.7894 8.19447 16.4426 8.79634 13.9451C9.03409 14.0925 9.29509 14.1761 9.55684 14.2013C9.93934 15.2066 11.1682 15.5168 11.5578 15.5929C10.746 16.0545 10.0931 16.953 10.4902 18.4178C10.4583 15.9986 13.0267 15.3079 13.3983 15.4436C13.8288 15.6015 14.379 16.3759 14.5102 16.7921C14.5616 16.9564 14.5725 17.4795 14.5725 17.4795C14.5725 17.4795 14.7236 16.9545 14.6992 16.7775C14.6238 16.2345 13.9263 15.1958 13.4145 14.994C12.8058 14.7551 11.2507 14.9063 10.6691 14.6078C9.50434 14.01 9.89697 12.2644 10.8551 12.3675C11.94 12.4841 12.5531 12.2955 13.0893 12.1436C13.7096 11.9681 14.2533 11.805 14.799 12.2141C15.3682 12.6405 16.6057 13.5548 16.9788 13.9238C18.2013 15.1328 17.919 17.8046 17.0587 19.2405ZM18.3581 3.40614L16.227 12.4849C15.4136 11.9816 15.0236 11.5894 14.6696 11.5661L14.3696 10.1078L16.2742 2.47501C16.587 1.19364 18.7451 1.89226 18.3581 3.40614Z" fill="black"/>
</svg>
