<svg width="24" height="24" viewBox="0 0 24 24" fill="none" xmlns="http://www.w3.org/2000/svg">
<path d="M14.6982 13.9916C13.0714 12.8858 10.9767 12.5254 9.05482 13.0226C8.54857 13.1595 8.92019 14.3438 9.39382 14.223C11.1634 13.7726 12.8727 14.2759 13.9474 15.0045C14.3468 15.2858 15.0998 14.2714 14.6982 13.9916ZM18.6319 6.38926L18.5798 6.31163L18.4917 6.28051C17.0554 5.77201 15.2547 5.71763 13.7292 6.14438L13.6377 6.16988L13.5807 6.24563C13.1726 6.78178 12.9519 7.43711 12.9526 8.11088C12.9526 9.82051 14.3434 11.2114 16.0531 11.2114C17.7627 11.2114 19.1543 9.82051 19.1543 8.11088C19.1546 7.49793 18.9728 6.89871 18.6319 6.38926ZM16.0527 10.6485C15.3798 10.6477 14.7347 10.3801 14.2589 9.90427C13.7831 9.42847 13.5155 8.78338 13.5147 8.11051C13.5147 7.64176 13.6489 7.19401 13.8934 6.79576C13.8867 6.84976 13.8743 6.90113 13.8743 6.95701C13.8743 7.33096 14.0229 7.6896 14.2873 7.95403C14.5517 8.21846 14.9104 8.36701 15.2843 8.36701C15.6583 8.36701 16.0169 8.21846 16.2813 7.95403C16.5458 7.6896 16.6943 7.33096 16.6943 6.95701C16.6943 6.77813 16.6568 6.60938 16.5957 6.45226C17.1608 6.50213 17.7113 6.61051 18.2138 6.77926C18.4611 7.1792 18.5918 7.64028 18.5911 8.11051C18.5903 8.78345 18.3226 9.4286 17.8467 9.9044C17.3708 10.3802 16.7256 10.6478 16.0527 10.6485ZM11.0479 8.11088C11.0488 7.4979 10.8671 6.89856 10.5259 6.38926L10.4738 6.31163L10.3857 6.28051C8.94944 5.77201 7.14869 5.71763 5.62319 6.14438L5.53169 6.16988L5.47432 6.24563C5.06625 6.78178 4.84556 7.43711 4.84619 8.11088C4.84619 9.82051 6.23707 11.2114 7.94669 11.2114C9.65669 11.211 11.0479 9.82051 11.0479 8.11088ZM7.94669 10.6485C7.27382 10.6477 6.62873 10.3801 6.15293 9.90427C5.67714 9.42847 5.40949 8.78338 5.40869 8.11051C5.40869 7.64176 5.54294 7.19401 5.78744 6.79576C5.78069 6.84976 5.76832 6.90113 5.76832 6.95701C5.76832 7.33096 5.91687 7.6896 6.1813 7.95403C6.44572 8.21846 6.80436 8.36701 7.17832 8.36701C7.55227 8.36701 7.91091 8.21846 8.17534 7.95403C8.43976 7.6896 8.58832 7.33096 8.58832 6.95701C8.58832 6.77813 8.55082 6.60938 8.48969 6.45226C9.05482 6.50213 9.60532 6.61051 10.1078 6.77926C10.3551 7.1792 10.4858 7.64028 10.4851 8.11051C10.4854 9.51001 9.34694 10.6485 7.94669 10.6485Z" fill="black"/>
<path d="M12 0.75C6.19913 0.75 1.5 5.44987 1.5 11.25C1.49936 13.1251 2.00391 14.9657 2.96063 16.5784C2.81363 16.9144 2.68163 17.2714 2.664 17.721C2.66 17.7973 2.65538 17.879 2.65013 17.9662C2.5995 18.7376 2.52488 19.9035 3.55613 21.3649C4.22175 22.3069 5.25525 22.9256 6.5445 23.1521C7.00163 23.232 7.46963 23.2627 7.97775 23.2459C8.80913 23.2174 9.39263 23.1874 9.71213 22.6073C9.98288 22.1164 9.67125 21.8066 9.90225 21.5363C10.5926 21.6777 11.2954 21.7493 12 21.75C17.8009 21.75 22.5 17.0501 22.5 11.25C22.5 5.44987 17.8009 0.75 12 0.75ZM9.37913 21.7384C9.483 22.3755 9.12075 22.9778 6.67313 22.536C2.64525 21.8092 2.91863 17.9985 3.56925 16.6256C4.047 15.6172 3.97425 15.1883 3.69825 13.9365C3.44738 12.8006 5.59313 13.3148 5.65463 14.6768C5.7 15.687 5.31113 16.2022 5.79525 16.6466C6.8775 17.6404 10.0001 17.0959 12.111 16.6481C13.014 16.4565 13.4783 17.3722 12.8089 17.8387C12.0934 18.3386 11.2568 18.5415 10.0193 18.6322C9.37313 18.6791 10.1021 18.8872 10.0009 19.5007C9.94575 19.8375 9.59288 19.8259 9.60638 20.1761C9.6135 20.3625 9.99788 20.5586 9.7365 21.0274C9.65888 21.1673 9.31163 21.3278 9.37913 21.7384ZM12 20.8125C11.424 20.8125 10.8611 20.7574 10.3129 20.6588C10.2953 20.55 10.2601 20.4449 10.2086 20.3475C10.0673 20.0707 10.7704 19.785 10.4846 19.0417C11.556 18.8659 12.3529 18.6593 13.0913 18.2396C13.8851 17.7885 13.9117 17.2969 13.8574 17.0441C13.7651 16.623 13.3309 16.2757 12.7748 16.1782C12.5652 16.1401 12.3501 16.1448 12.1425 16.1921C10.9706 16.4764 8.166 16.8592 6.74738 16.6102C6.34875 16.5397 6.21863 16.4449 6.18188 16.4074C5.976 16.2007 6.015 15.8055 6.11588 14.988C6.23963 13.983 5.33663 12.9116 4.536 12.771L4.48463 12.7624C4.04288 12.7069 3.64875 12.834 3.4035 13.1126C3.129 13.4224 3.0675 13.8855 3.23363 14.3812C3.3645 14.7709 3.39413 15.0836 3.36863 15.3619C2.755 14.078 2.43684 12.673 2.4375 11.25C2.4375 8.6145 3.50925 6.22463 5.23988 4.49325C5.2695 4.5015 5.29688 4.5015 5.31975 4.48763C5.95293 4.11959 6.65949 3.89573 7.38909 3.83201C8.11869 3.7683 8.85336 3.86629 9.54075 4.119C9.73275 4.19325 10.0388 3.48787 9.80438 3.399C8.90066 3.06953 7.92862 2.97256 6.97763 3.117C8.48541 2.18084 10.2252 1.68564 12 1.6875C14.6486 1.6875 17.049 2.77087 18.7826 4.5165C17.9919 4.22974 17.148 4.11998 16.3102 4.19495C15.4725 4.26991 14.6615 4.52779 13.9342 4.95038C13.7198 5.07863 14.1431 5.71875 14.3201 5.61337C14.9532 5.24515 15.6597 5.0211 16.3893 4.95719C17.1189 4.89328 17.8537 4.99108 18.5411 5.24362C18.702 5.30625 18.9386 4.82588 18.8749 4.61363C20.5369 6.33488 21.5625 8.67413 21.5625 11.25C21.5625 16.5229 17.2729 20.8125 12 20.8125Z" fill="black"/>
</svg>
