<svg width="24" height="24" viewBox="0 0 24 24" fill="none" xmlns="http://www.w3.org/2000/svg">
<g clip-path="url(#clip0_35_517)">
<path d="M21.9214 15.5089C21.3714 14.958 20.6886 14.5581 19.939 14.3479C19.1894 14.1378 18.3983 14.1243 17.6419 14.3089L9.69044 6.35924C9.8751 5.6026 9.86173 4.81115 9.65161 4.06119C9.44149 3.31123 9.04171 2.62804 8.49082 2.07749C7.32982 0.916485 5.69669 0.518235 4.21094 0.87786L7.30769 3.97536L6.60344 6.60298L3.97507 7.30761L0.878319 4.21011C0.693592 4.96662 0.707009 5.75799 0.917273 6.5078C1.12754 7.25762 1.52755 7.94057 2.07869 8.49074C2.62878 9.04163 3.31156 9.44146 4.06116 9.65165C4.81076 9.86184 5.60188 9.8753 6.35819 9.69073L14.3097 17.6407C14.125 18.3974 14.1384 19.1888 14.3485 19.9388C14.5587 20.6887 14.9584 21.3719 15.5093 21.9225C16.6703 23.0835 18.3034 23.4817 19.7892 23.1221L16.6921 20.0242L17.3963 17.3966L20.0251 16.692L23.1211 19.7895C23.3063 19.0331 23.2931 18.2416 23.083 17.4917C22.8728 16.7419 22.4728 16.0589 21.9214 15.5089Z" fill="black"/>
</g>
<defs>
<clipPath id="clip0_35_517">
<rect width="24" height="24" fill="white"/>
</clipPath>
</defs>
</svg>
