<svg width="24" height="24" viewBox="0 0 24 24" fill="none" xmlns="http://www.w3.org/2000/svg">
<g clip-path="url(#clip0_35_522)">
<path d="M7.96875 5.19073C5.74575 5.19073 3.9375 6.99898 3.9375 9.22198C3.9375 11.445 5.74575 13.2532 7.96875 13.2532C10.1918 13.2532 12 11.445 12 9.22198C12 6.99898 10.1918 5.19073 7.96875 5.19073ZM7.96875 12.6907C6.05588 12.6907 4.5 11.1349 4.5 9.22198C4.5 7.30911 6.05588 5.75323 7.96875 5.75323C9.88125 5.75323 11.4375 7.30911 11.4375 9.22198C11.4375 11.1349 9.88125 12.6907 7.96875 12.6907Z" fill="black"/>
<path d="M7.96875 10.9095C8.90073 10.9095 9.65625 10.154 9.65625 9.22198C9.65625 8.29 8.90073 7.53448 7.96875 7.53448C7.03677 7.53448 6.28125 8.29 6.28125 9.22198C6.28125 10.154 7.03677 10.9095 7.96875 10.9095Z" fill="black"/>
<path d="M16.3127 8.625C15.2601 8.625 14.2078 9.39187 13.5088 10.9249C13.4391 11.0794 13.7995 11.3576 13.9798 11.2061C14.6575 10.6361 15.4667 10.4089 16.3127 10.4089C17.158 10.4089 17.9672 10.6361 18.6456 11.2061C18.8252 11.3576 19.1852 11.0794 19.1166 10.9249C18.4176 9.39187 17.3653 8.625 16.3127 8.625Z" fill="black"/>
<path d="M12 0.75C5.78662 0.75 0.75 5.787 0.75 12C0.75 18.213 5.78662 23.25 12 23.25C18.213 23.25 23.25 18.213 23.25 12C23.25 5.787 18.213 0.75 12 0.75ZM12.0007 22.5C9.93037 22.4985 8.25075 20.8507 8.25075 17.5665V16.0684C8.25075 15.8692 8.29312 15.75 8.559 15.75H11.4375L12.0007 20.9209L12.5625 15.75H15.4425C15.708 15.75 15.7507 15.8689 15.7507 16.0684V17.5665C15.7507 20.8507 14.0711 22.4985 12.0007 22.5ZM15.183 21.804C15.8006 21.0934 16.2634 20.0891 16.431 18.7279C17.7038 17.6378 18.3761 16.11 18.3761 14.6254C18.3761 14.4405 18.2291 14.2504 17.9543 14.2504H6.04688C5.772 14.25 5.625 14.4401 5.625 14.625C5.625 16.1089 6.297 17.6359 7.56863 18.7264C7.73588 20.0906 8.20237 21.0938 8.82187 21.8055C4.68675 20.4615 1.6875 16.5769 1.6875 12C1.6875 6.3135 6.3135 1.6875 12 1.6875C17.6865 1.6875 22.3125 6.3135 22.3125 12C22.3125 16.5754 19.3155 20.4589 15.183 21.804Z" fill="black"/>
</g>
<defs>
<clipPath id="clip0_35_522">
<rect width="24" height="24" fill="white"/>
</clipPath>
</defs>
</svg>
